<svg fill="#ed463d" height="512pt" viewBox="-58 0 512 512" width="512pt" xmlns="http://www.w3.org/2000/svg"><path d="m349.984375 297.191406c-4.148437 0-8.167969.570313-11.984375 1.625v-265.226562c.003906-18.519532-15.066406-33.589844-33.589844-33.589844h-270.820312c-18.523438 0-33.589844 15.070312-33.589844 33.589844v270.820312c0 18.523438 15.066406 33.59375 33.589844 33.59375h91.34375c.003906 6.667969.007812 13.648438.011718 21.050782-5.449218-2.285157-11.359374-3.484376-17.464843-3.484376-12.042969 0-23.34375 4.667969-31.816407 13.148438-9.003906 9-13.894531 21.46875-13.425781 34.207031.4375 11.921875 5.492188 22.644531 14.230469 30.183594l87.234375 75.25c2.832031 2.445313 6.320313 3.640625 9.789063 3.640625 4.210937 0 8.398437-1.761719 11.367187-5.203125 5.410156-6.273437 4.710937-15.742187-1.5625-21.15625l-87.230469-75.25c-3.015625-2.601563-3.757812-6.09375-3.851562-8.570313-.160156-4.367187 1.582031-8.8125 4.660156-11.890624 2.8125-2.808594 6.578125-4.359376 10.605469-4.359376 4.03125 0 7.796875 1.550782 10.605469 4.359376l11.269531 11.265624c4.289062 4.292969 10.742187 5.574219 16.347656 3.25 5.609375-2.324218 9.261719-7.792968 9.257813-13.863281-.011719-26.757812-.070313-123.300781-.070313-152.125 0-8.28125 6.738281-15.019531 15.019531-15.019531s15.019532 6.738281 15.019532 15.019531v102.292969c0 8.140625 6.496093 14.796875 14.636718 14.996094 8.152344.191406 14.949219-6.136719 15.34375-14.273438.382813-7.875 7.109375-14.285156 15-14.285156 8.28125 0 15.019532 6.738281 15.019532 15.019531s6.714843 15 15 15c8.28125 0 15-6.71875 15-15s6.734374-15.019531 15.015624-15.019531 15.019532 6.738281 15.019532 15.019531 6.714844 15 15 15 15-6.71875 15-15 6.738281-15.019531 15.019531-15.019531 15.015625 6.738281 15.015625 15.019531v154.78125c0 8.285157 6.71875 15 15 15 8.285156 0 15-6.714843 15-15v-154.78125c.003906-24.824219-20.195312-45.015625-45.015625-45.015625zm-180.074219-103.75c-17.539062 0-32.757812 10.085938-40.183594 24.761719-14.765624-11.804687-23.726562-29.820313-23.726562-49.203125 0-34.738281 28.261719-63 63-63s63 28.261719 63 63c0 18.742188-8.464844 36.300781-22.457031 48.132812-7.613281-14.09375-22.523438-23.691406-39.632813-23.691406zm120.035156 103.75c-11.519531 0-22.046874 4.347656-30.015624 11.496094-7.972657-7.148438-18.496094-11.496094-30.019532-11.496094-5.246094 0-10.292968.894532-14.980468 2.542969v-49.917969c28.828124-16.460937 47.070312-47.355468 47.070312-80.816406 0-51.28125-41.71875-93-93-93s-93 41.71875-93 93c0 34.289062 18.972656 65.664062 48.894531 81.835938.003907 19.167968.011719 37.074218.023438 57.164062h-91.328125c-1.945313 0-3.589844-1.644531-3.589844-3.589844v-270.820312c0-1.945313 1.644531-3.589844 3.589844-3.589844h270.820312c1.945313 0 3.589844 1.644531 3.589844 3.589844v267.382812c-5.527344-2.429687-11.636719-3.78125-18.054688-3.78125zm0 0"/></svg>