<svg fill="#ed463d" enable-background="new 0 0 512 512" height="512" viewBox="0 0 512 512" width="512" xmlns="http://www.w3.org/2000/svg"><path d="m272.066 94.267h48.2c8.284 0 15-6.716 15-15s-6.716-15-15-15h-48.2c-8.284 0-15 6.716-15 15s6.716 15 15 15z"/><circle cx="207.8" cy="79.267" r="15"/><circle cx="143.533" cy="79.267" r="15"/><path d="m497 273.133h-66.776c-6.098-31.697-31.127-56.726-62.824-62.824v-19.642h49.267c8.284 0 15-6.716 15-15v-17.133h33.2c8.284 0 15-6.716 15-15v-48.2c-.001-52.567-42.767-95.334-95.334-95.334h-305.266c-43.708 0-79.267 35.559-79.267 79.267 0 38.579 27.709 70.791 64.267 77.824v113.013c0 20.519-4.225 40.423-12.558 59.164l-37.256 83.838c-9.591 21.572-14.453 44.478-14.453 68.085v15.809c0 8.284 6.716 15 15 15h449.866c8.284 0 15-6.716 15-15 0-27.332-13.905-51.476-35.012-65.732 26.263-21.211 67.146-66.863 67.146-143.135 0-8.284-6.716-15-15-15zm-159.601-.243-31.952-.098c2.297-7.185 10.268-24.837 31.952-31.659zm61.915.19-31.915-.098v-31.772c15.103 4.84 27.061 16.774 31.915 31.87zm-61.915-62.856c-41.37 7.702-59.011 41.984-62.908 62.909h-66.691c-8.284 0-15 6.716-15 15 0 13.291-.424 67.335 41.602 117.926-44.72-20.457-75.868-65.62-75.868-117.926v-96.416c0-18.298 14.886-33.184 33.2-33.184h.073 81.326v17.133c0 8.284 6.716 15 15 15h49.267v19.558zm112.467-114.891v33.2h-33.2c-8.284 0-15 6.716-15 15v17.133h-98.533v-17.133c0-8.284-6.716-15-15-15h-193.866v-98.533h290.267c36.024 0 65.332 29.309 65.332 65.333zm-419.866-16.066c0-21.938 14.412-40.572 34.267-46.932v93.864c-19.855-6.36-34.267-24.994-34.267-46.932zm0 402.733v-.809c0-19.381 3.992-38.188 11.867-55.901l37.256-83.838c10.049-22.598 15.144-46.603 15.144-71.348v-111.571h43.7c-5.979 9.65-9.434 21.021-9.434 33.184v96.416c0 88.004 71.596 159.6 159.6 159.6h112.467c21.938 0 40.572 14.413 46.933 34.267zm382.408-64.267h-120.016c-19.005-12.118-63.598-47.842-69.087-114.6h258.19c-5.488 66.758-50.081 102.483-69.087 114.6z"/></svg>