<svg fill="#ed463d" height="512" viewBox="0 0 16 16" width="512" xmlns="http://www.w3.org/2000/svg"><path d="m8 0c-4.41113 0-8 3.58887-8 8s3.58887 8 8 8 8-3.58887 8-8-3.58887-8-8-8zm0 15c-3.85986 0-7-3.14014-7-7s3.14014-7 7-7 7 3.14014 7 7-3.14014 7-7 7z"/><path d="m9 3c-1.04364 0-1.9624.536926-2.5 1.34772v-3.84772c0-.276367-.223633-.5-.5-.5-1.6543 0-3 1.3457-3 3 0 1.04364.536926 1.9624 1.34772 2.5h-3.84772c-.276367 0-.5.223633-.5.5 0 1.6543 1.3457 3 3 3 1.04364 0 1.9624-.536926 2.5-1.34772v3.84772c0 .276367.223633.5.5.5 1.6543 0 3-1.3457 3-3 0-1.04364-.536926-1.9624-1.34772-2.5h3.84772c.276367 0 .5-.223633.5-.5 0-1.6543-1.3457-3-3-3zm-6 5c-.930176 0-1.71436-.638184-1.93652-1.5h3.87305c-.222168.861816-1.00635 1.5-1.93652 1.5zm1-5c0-.930176.638184-1.71436 1.5-1.93652v3.87305c-.861816-.222168-1.5-1.00635-1.5-1.93652zm2 3.5c-.276123 0-.5-.223877-.5-.5 0-.276184.223877-.5.5-.5s.5.223816.5.5c0 .276123-.223877.5-.5.5zm2 2.5c0 .930176-.638184 1.71436-1.5 1.93652v-3.87305c.861816.222168 1.5 1.00635 1.5 1.93652zm-.936523-3.5c.222168-.861816 1.00635-1.5 1.93652-1.5.930176 0 1.71436.638184 1.93652 1.5h-3.87305z" transform="translate(2 2)"/></svg>