<svg fill="#ed463d" enable-background="new 0 0 512 512" height="512" viewBox="0 0 512 512" width="512" xmlns="http://www.w3.org/2000/svg"><path d="m439.831 344.691c-.673-1.099-1.476-2.107-2.4-2.995-30.23-37.312-71.795-65.073-119.41-78 34.725-21.051 57.979-59.208 57.979-102.696 0-.333-.011-.667-.014-1h12.055c8.284 0 15-6.716 15-15s-6.716-15-15-15h-11.059c-2.75-20.897-10.871-40.604-23.872-57.676-13.796-18.116-32.677-32.204-53.786-40.312-5.234-18.452-22.221-32.012-42.327-32.012h-1.994c-20.106 0-37.093 13.56-42.328 32.011-21.109 8.108-39.988 22.196-53.785 40.312-13.002 17.073-21.122 36.78-23.872 57.677h-11.059c-8.284 0-15 6.716-15 15s6.716 15 15 15h12.062c-.003.333-.02.667-.02 1 0 43.488 23.254 81.645 57.979 102.695-98.42 26.72-171.021 116.828-171.021 223.589v9.716c0 8.284 6.716 15 15 15h436.083c8.284 0 15-6.716 15-15v-9.716c-.001-53.734-18.394-103.251-49.211-142.593zm-279.831-35.458c28.232-15.062 60.444-23.605 94.615-23.605h2.77c34.171 0 66.384 8.543 94.615 23.605v64.767h-192zm51-243.353v6.108c0 8.284 6.716 15 15 15s15-6.716 15-15v-27.985c0-7.721 6.281-14.003 14.003-14.003h1.994c7.721 0 14.002 6.282 14.002 14.003v27.987c0 8.284 6.716 15 15 15s15-6.716 15-15v-6.11c23.744 13.505 40.699 37.213 45.588 64.12h-181.175c4.889-26.907 21.844-50.615 45.588-64.12zm-45 95.12c0-.333.016-.667.02-1h179.967c.004.333.014.667.014 1 0 49.626-40.374 90-90 90-49.627 0-90.001-40.374-90.001-90zm-36 167.858v60.142c0 8.284 6.716 15 15 15h222c8.284 0 15-6.716 15-15v-60.141c10.991 8.664 21.063 18.442 30.042 29.167v123.974h-312.051c.022-.332.05-.662.05-1v-122.5c0-.183-.021-.36-.027-.542 8.965-10.699 19.018-20.454 29.986-29.1zm-59.959 77.223v74.919c0 .338.029.668.05 1h-17.064c.696-26.942 6.708-52.583 17.014-75.919zm372.001 75.919v-75.725c10.254 23.284 16.237 48.857 16.931 75.725z"/></svg>