<svg  fill="#ed463d" xmlns="http://www.w3.org/2000/svg" xmlns:xlink="http://www.w3.org/1999/xlink" x="0px" y="0px"
	 viewBox="0 0 512 512" style="enable-background:new 0 0 512 512;" xml:space="preserve">
<g>
	<g>
		<path d="M482,424.58V346c0-90.981-74.019-165-165-165h-18.58c-6.192-17.458-22.865-30-42.42-30c-19.555,0-36.228,12.542-42.42,30
			H195c-8.271,0-15-6.729-15-15V87.42c17.459-6.192,30-22.865,30-42.42c0-24.813-20.187-45-45-45H45C20.187,0,0,20.187,0,45
			c0,19.555,12.541,36.228,30,42.42V166c0,90.981,74.019,165,165,165h18.58c6.192,17.458,22.865,30,42.42,30s36.228-12.542,42.42-30
			H317c8.271,0,15,6.729,15,15v78.58c-17.459,6.192-30,22.865-30,42.42c0,24.813,20.187,45,45,45h120c24.813,0,45-20.187,45-45
			C512,447.445,499.459,430.772,482,424.58z M30,45c0-8.271,6.729-15,15-15h120c8.271,0,15,6.729,15,15s-6.729,15-15,15H45
			C36.729,60,30,53.271,30,45z M211,301h-16c-74.439,0-135-60.561-135-135V90h90v76c0,24.813,20.187,45,45,45h16V301z M271,316
			c0,8.271-6.729,15-15,15s-15-6.729-15-15V196c0-8.271,6.729-15,15-15s15,6.729,15,15V316z M317,301h-16v-90h16
			c74.439,0,135,60.561,135,135v76h-90v-76C362,321.187,341.813,301,317,301z M467,482H347c-8.271,0-15-6.729-15-15s6.729-15,15-15
			h120c8.271,0,15,6.729,15,15S475.271,482,467,482z"/>
	</g>
</g>
<g>
</g>
<g>
</g>
<g>
</g>
<g>
</g>
<g>
</g>
<g>
</g>
<g>
</g>
<g>
</g>
<g>
</g>
<g>
</g>
<g>
</g>
<g>
</g>
<g>
</g>
<g>
</g>
<g>
</g>
</svg>
