<?xml version="1.0" encoding="iso-8859-1"?>
<!-- Generator: Adobe Illustrator 19.0.0, SVG Export Plug-In . SVG Version: 6.00 Build 0)  -->
<svg version="1.1" id="Layer_1" xmlns="http://www.w3.org/2000/svg" xmlns:xlink="http://www.w3.org/1999/xlink" x="0px" y="0px"
	 viewBox="0 0 370.909 370.909" style="enable-background:new 0 0 370.909 370.909;" xml:space="preserve">
<g>
	<g>
		<path d="M290.545,139.709c0-13.146-11.553-23.981-23.491-24.688V12.364C267.054,4.945,262.109,0,254.691,0H116.218
			c-7.418,0-12.364,4.945-12.364,12.364v102.618c-12.364,0.001-23.491,11.128-23.491,24.727v80.364c0,2.206,0.447,4.188,1.257,5.891
			c0.434,20.773,15.111,43.73,34.598,54.691l40.8,19.782c1.237,1.236,3.709,1.236,4.945,1.236c0.237,0,0.473-0.011,0.71-0.022
			c0.176,0.006,0.348,0.022,0.527,0.022h45.746c1.096,0,3.162-0.005,4.478-0.868c0.864-0.34,1.689-0.785,2.466-1.309l40.038-18.841
			c19.782-11.128,34.618-34.619,34.618-55.637c0-0.916-0.077-1.793-0.223-2.629c0.138-0.743,0.223-1.512,0.223-2.316V139.709z
			 M128.582,24.727h113.745v90.255h-22.255h-91.491V24.727z M265.818,225.019c0,11.126-9.89,27.199-21.018,33.381l-38.251,18.546
			h-40.954L127.345,258.4c-11.128-6.182-21.018-22.254-21.018-33.381c0-2.186-0.44-4.15-1.235-5.843v-79.467h114.981h22.255h23.491
			v80.364c0,0.86,0.073,1.683,0.202,2.473C265.891,223.336,265.818,224.159,265.818,225.019z"/>
	</g>
</g>
<g>
	<g>
		<path d="M150.837,56.873c-7.418,0-12.364,4.945-12.364,12.364v23.491c0,7.418,4.945,12.364,12.364,12.364
			c6.182,0,12.364-4.945,12.364-12.364V69.236C163.201,61.818,158.256,56.873,150.837,56.873z"/>
	</g>
</g>
<g>
	<g>
		<path d="M220.073,56.873c-7.418,0-12.364,4.945-12.364,12.364v23.491c0,7.418,4.946,12.364,12.364,12.364
			c6.182,0,12.364-4.945,12.364-12.364V69.236C232.437,61.818,227.491,56.873,220.073,56.873z"/>
	</g>
</g>
<g>
	<g>
		<path d="M208.946,311.563H163.2c-7.418,0-12.364,4.945-12.364,12.364c0,7.418,4.945,12.364,12.364,12.364h9.891v22.255
			c0,7.418,4.945,12.364,12.364,12.364c6.182,0,12.364-4.945,12.364-12.364V336.29h11.128c6.182,0,12.364-4.944,12.364-12.364
			C221.31,316.509,216.364,311.563,208.946,311.563z"/>
	</g>
</g>
<g>
</g>
<g>
</g>
<g>
</g>
<g>
</g>
<g>
</g>
<g>
</g>
<g>
</g>
<g>
</g>
<g>
</g>
<g>
</g>
<g>
</g>
<g>
</g>
<g>
</g>
<g>
</g>
<g>
</g>
</svg>
